<svg width="34" height="35" viewBox="0 0 34 35" fill="none" xmlns="http://www.w3.org/2000/svg">
<path d="M31.069 14.068H1.17248V10.5517H32.8274L32.8283 14.068H31.069ZM30.4827 32.8283H21.1035V24.6197C21.1035 23.9743 20.5776 23.4496 19.931 23.4496H14.0689C13.4222 23.4496 12.8964 23.9743 12.8964 24.6197V32.8283H3.51714V15.2411H30.4827V32.8283ZM19.931 32.8283H14.0689V24.6197H19.931V32.8283ZM5.47628 1.49729C5.5762 1.29687 5.77692 1.17308 6.00034 1.17308H27.9995C28.2229 1.17308 28.4237 1.29687 28.5236 1.49729L32.4651 9.37865H1.53471L5.47628 1.49729ZM33.9592 9.76478C33.9542 9.75005 33.9515 9.73823 33.9456 9.72644C33.9424 9.7176 33.9415 9.71171 33.938 9.70287L29.5723 0.97263C29.2725 0.371357 28.6698 -1.52588e-05 27.9995 -1.52588e-05H6.00034C5.33009 -1.52588e-05 4.72735 0.371357 4.4276 0.97263L0.0618913 9.70287C0.0583544 9.71171 0.0574699 9.7176 0.0542278 9.72644C0.0483329 9.73823 0.0453867 9.75005 0.0406708 9.76478C0.0194495 9.82078 0.0070712 9.88268 0.00471327 9.94163C0.00441853 9.95047 0 9.95636 0 9.9652V14.068C0 14.7164 0.525819 15.2411 1.17248 15.2411H2.34496V33.4148C2.34496 33.739 2.60728 34.0013 2.9309 34.0013H13.4826H20.5172H31.069C31.3926 34.0013 31.6549 33.739 31.6549 33.4148V15.2411H32.8274C33.474 15.2411 33.9999 14.7164 33.9999 14.068V9.9652C33.9999 9.95636 33.9954 9.95047 33.9951 9.94163C33.9928 9.88268 33.9804 9.82078 33.9592 9.76478Z" fill="#3E8180"/>
<path d="M5.86193 21.1035H7.62036V23.4496H5.86193V21.1035ZM5.86193 17.5872H7.62036V19.9304H5.86193V17.5872ZM8.79284 21.1035H10.5522L10.5524 23.4496H8.79284V21.1035ZM8.79284 17.5872H10.5516L10.5519 19.9304H8.79284V17.5872ZM5.86193 24.6198H10.5516C11.1982 24.6198 11.724 24.0951 11.724 23.4496V17.5872C11.724 16.9388 11.1982 16.4142 10.5516 16.4142H5.86193C5.21527 16.4142 4.68945 16.9388 4.68945 17.5872V23.4496C4.68945 24.0951 5.21527 24.6198 5.86193 24.6198Z" fill="#3E8180"/>
<path d="M23.448 21.1035H25.2067V23.4496H23.448V21.1035ZM23.448 17.5872H25.2067V19.9304H23.448V17.5872ZM26.3792 21.1035H28.1382L28.1385 23.4496H26.3792V21.1035ZM26.3792 17.5872H28.1376L28.1379 19.9304H26.3792V17.5872ZM23.448 24.6198H28.1376C28.7843 24.6198 29.3101 24.0951 29.3101 23.4496V17.5872C29.3101 16.9388 28.7843 16.4142 28.1376 16.4142H23.448C22.8014 16.4142 22.2755 16.9388 22.2755 17.5872V23.4496C22.2755 24.0951 22.8014 24.6198 23.448 24.6198Z" fill="#3E8180"/>
</svg>
