      <svg width="21" height="17" viewBox="0 0 21 17" fill="none" xmlns="http://www.w3.org/2000/svg">
                    <path d="M20.1248 7.49142L19.7128 7.07325L16.9617 4.32214L16.9615 1.75975H15.5395V2.90601L12.6335 0L8.13196 4.49852L5.65338 2.01994L0.231615 7.44171V7.44192C-0.0772049 7.75074 -0.0772049 8.25148 0.231615 8.5603C0.540434 8.86912 1.04117 8.86912 1.34999 8.5603L5.64409 4.25083L7.01358 5.62032L5.19806 7.43584L5.19785 7.43562C4.88903 7.74444 4.88903 8.24518 5.19785 8.554C5.50688 8.86282 6.00763 8.86282 6.31645 8.554L12.63 2.23709L19.0061 8.6226C19.315 8.93142 19.8157 8.93142 20.1245 8.6226C20.4333 8.31357 20.4333 7.81282 20.1245 7.504L20.1248 7.49142Z" fill="#3E8180"/>
                    <path d="M6.42148 16.0579V15.2492H3.28919V6.32983H1.91992V16.058C1.91992 16.366 2.16953 16.6156 2.47748 16.6156H6.99785C6.68665 16.6158 6.43166 16.369 6.42148 16.058V16.0579Z" fill="#3E8180"/>
                    <path d="M18.8484 9.35635L13.1202 3.64025C12.895 3.41528 12.5302 3.41528 12.3052 3.64025C6.08128 9.86422 6.41876 9.43048 6.41876 9.76242V16.0578C6.41876 16.3761 6.6768 16.6339 6.9949 16.6339H18.4581C18.7662 16.6339 19.0158 16.3843 19.0158 16.0764C19.0066 9.2416 19.0746 9.59181 18.8486 9.35668L18.8484 9.35635ZM14.8828 13.5078C14.8802 13.94 14.7062 14.3537 14.3989 14.6575C14.0914 14.9614 13.6761 15.1308 13.2438 15.1282H12.1842C11.752 15.1282 11.3375 14.9566 11.032 14.651C10.7264 14.3452 10.5546 13.9307 10.5546 13.4985V9.44928C10.5546 9.01706 10.7264 8.60254 11.032 8.29699C11.3375 7.99141 11.7521 7.81982 12.1842 7.81982H13.2438C13.676 7.81982 14.0906 7.99141 14.3961 8.29699C14.7017 8.60257 14.8735 9.01709 14.8735 9.44928L14.8828 13.5078Z" fill="#3E8180"/>
                    </svg> 