<svg width="61" height="38" viewBox="0 0 61 38" fill="none" xmlns="http://www.w3.org/2000/svg">
<path d="M33.7451 29.5405H26.95V11.6834H33.7451V29.5405Z" fill="#7065A7"/>
<path d="M25.0762 28.8473C25.0762 28.3841 25.4527 28.0102 25.9186 28.0102H34.7772C35.2419 28.0102 35.618 28.3841 35.618 28.8473C35.618 29.3139 35.2419 29.6904 34.7772 29.6904H25.9186C25.4527 29.6904 25.0762 29.3139 25.0762 28.8473Z" fill="#322C4E"/>
<path d="M26.1391 27.3375C26.1391 26.9629 26.4388 26.6629 26.8115 26.6629H33.8835C34.2554 26.6629 34.5562 26.9629 34.5562 27.3375C34.5562 27.7056 34.2554 28.0103 33.8835 28.0103H26.8115C26.4388 28.0103 26.1391 27.7056 26.1391 27.3375Z" fill="#322C4E"/>
<path d="M35.618 13.3122C35.618 13.7781 35.2419 14.1534 34.7772 14.1534H25.9186C25.4527 14.1534 25.0762 13.7781 25.0762 13.3122C25.0762 12.846 25.4527 12.471 25.9186 12.471H34.7772C35.2419 12.471 35.618 12.846 35.618 13.3122Z" fill="#322C4E"/>
<path d="M34.5562 14.8261C34.5562 15.2 34.2554 15.4977 33.8835 15.4977H26.8115C26.4388 15.4977 26.1391 15.2 26.1391 14.8261C26.1391 14.455 26.4388 14.1534 26.8115 14.1534H33.8835C34.2554 14.1534 34.5562 14.455 34.5562 14.8261Z" fill="#322C4E"/>
<path d="M18.2458 29.5405H11.4499V11.6834H18.2458V29.5405Z" fill="#7065A7"/>
<path d="M48.8829 29.5405H42.0859V11.6834H48.8829V29.5405Z" fill="#7065A7"/>
<path d="M57.7463 30.8468V32.2798C57.7463 32.8768 57.2907 33.359 56.7093 33.4191V33.434H4.10464C3.46422 33.434 2.94969 32.9141 2.94969 32.2798V30.8468C2.94969 30.2079 3.46422 29.6903 4.10464 29.6903H56.7093V29.7002C57.2907 29.7626 57.7463 30.2497 57.7463 30.8468Z" fill="#534884"/>
<path d="M61 34.5912V36.0211C61 36.622 60.5878 37.1038 60.0611 37.1628V37.1761H1.04885C0.46738 37.1761 0 36.6589 0 36.0211V34.5912C0 33.9485 0.46738 33.434 1.04885 33.434H60.0611V33.4435C60.5878 33.5059 61 33.9896 61 34.5912Z" fill="#6C5FA7"/>
<path d="M51.1673 11.2757C51.1673 11.7831 50.7585 12.1904 50.2519 12.1904H10.4434C9.93689 12.1904 9.52808 11.7831 9.52808 11.2757C9.52808 10.9129 9.74142 10.5954 10.0533 10.4471H10.0472C10.5625 9.83861 23.6024 3.46679 28.7056 0.984233C29.1399 0.388311 29.8331 3.62396e-05 30.6135 3.62396e-05C30.6512 3.62396e-05 30.6846 0.00231266 30.7188 0.00497437C30.7246 0.00231266 30.7325 3.62396e-05 30.7325 3.62396e-05L30.7428 0.00497437C31.4501 0.0460463 32.0723 0.397444 32.4849 0.933279L43.01 6.51789L50.2519 10.3608C50.7585 10.3608 51.1673 10.77 51.1673 11.2757Z" fill="#6C5FA7"/>
<path d="M19.868 13.3122C19.868 13.7781 19.4922 14.1534 19.0279 14.1534H10.1697C9.70497 14.1534 9.3281 13.7781 9.3281 13.3122C9.3281 12.846 9.70497 12.471 10.1697 12.471H19.0279C19.4922 12.471 19.868 12.846 19.868 13.3122Z" fill="#322C4E"/>
<path d="M18.8079 14.8261C18.8079 15.2 18.5055 15.4977 18.1348 15.4977H11.0624C10.6913 15.4977 10.3901 15.2 10.3901 14.8261C10.3901 14.455 10.6913 14.1534 11.0624 14.1534H18.1348C18.5055 14.1534 18.8079 14.455 18.8079 14.8261Z" fill="#322C4E"/>
<path d="M9.57917 28.8473C9.57917 28.3841 9.95452 28.0102 10.4192 28.0102H19.2763C19.7422 28.0102 20.1187 28.3841 20.1187 28.8473C20.1187 29.3139 19.7422 29.6904 19.2763 29.6904H10.4192C9.95452 29.6904 9.57917 29.3139 9.57917 28.8473Z" fill="#322C4E"/>
<path d="M10.64 27.3375C10.64 26.9629 10.9416 26.6629 11.3104 26.6629H18.3835C18.7555 26.6629 19.0578 26.9629 19.0578 27.3375C19.0578 27.7056 18.7555 28.0103 18.3835 28.0103H11.3104C10.9416 28.0103 10.64 27.7056 10.64 27.3375Z" fill="#322C4E"/>
<path d="M40.2132 28.8473C40.2132 28.3841 40.5893 28.0102 41.0556 28.0102H49.9138C50.3785 28.0102 50.755 28.3841 50.755 28.8473C50.755 29.3139 50.3785 29.6904 49.9138 29.6904H41.0556C40.5893 29.6904 40.2132 29.3139 40.2132 28.8473Z" fill="#322C4E"/>
<path d="M41.2759 27.3375C41.2759 26.9629 41.5767 26.6629 41.9471 26.6629H49.0199C49.3914 26.6629 49.6918 26.9629 49.6918 27.3375C49.6918 27.7056 49.3914 28.0103 49.0199 28.0103H41.9471C41.5767 28.0103 41.2759 27.7056 41.2759 27.3375Z" fill="#322C4E"/>
<path d="M50.755 13.3122C50.755 13.7781 50.3785 14.1534 49.9138 14.1534H41.0556C40.5893 14.1534 40.2132 13.7781 40.2132 13.3122C40.2132 12.846 40.5893 12.471 41.0556 12.471H49.9138C50.3785 12.471 50.755 12.846 50.755 13.3122Z" fill="#322C4E"/>
<path d="M49.6918 14.8261C49.6918 15.2 49.3914 15.4977 49.0199 15.4977H41.9494C41.5767 15.4977 41.2759 15.2 41.2759 14.8261C41.2759 14.455 41.5767 14.1534 41.9494 14.1534H49.0199C49.3914 14.1534 49.6918 14.455 49.6918 14.8261Z" fill="#322C4E"/>
<path d="M51.1673 11.2757C51.1673 11.7831 50.7585 12.1904 50.2519 12.1904H34.0054C40.2266 11.278 42.3102 8.40073 43.01 6.51789L50.2519 10.3608C50.7585 10.3608 51.1673 10.77 51.1673 11.2757Z" fill="#554B85"/>
<path d="M18.3165 37.1761H1.15686C0.515681 37.1761 0 36.6589 0 36.0211V34.5912C0 33.9485 0.515681 33.434 1.15686 33.434C1.15686 33.434 9.43586 36.549 18.3165 37.1761Z" fill="#554B85"/>
</svg>
