<svg width="38" height="44" viewBox="0 0 38 44" fill="none" xmlns="http://www.w3.org/2000/svg">
<path d="M34.5049 9.42139C34.5049 10.6997 33.4687 11.7332 32.1931 11.7332C30.9149 11.7332 29.8787 10.6997 29.8787 9.42139C29.8787 8.14257 30.9149 7.10799 32.1931 7.10799C33.4687 7.10799 34.5049 8.14257 34.5049 9.42139Z" fill="#322C4E"/>
<path d="M21.2573 7.108H16.9003V1.47926H21.2573V7.108Z" fill="#494268"/>
<path d="M38 24.6247C38 32.9933 32.5959 40.0945 25.0895 42.6292C23.1748 43.2793 21.1295 43.6274 19.0027 43.6274C8.50728 43.6274 0 35.1201 0 24.6247C0 18.3992 2.99168 12.8727 7.62065 9.40779C10.7919 7.03183 14.73 5.62275 19.0027 5.62275C29.4954 5.62275 38 14.132 38 24.6247Z" fill="#686187"/>
<path d="M25.8484 1.87988C25.8484 2.91609 25.008 3.7554 23.9718 3.7554H14.1862C13.1527 3.7554 12.3096 2.91609 12.3096 1.87988C12.3096 0.842847 13.1527 7.15256e-07 14.1862 7.15256e-07H23.9718C25.008 7.15256e-07 25.8484 0.842847 25.8484 1.87988Z" fill="#322C4E"/>
<path d="M25.0895 42.6292C23.1748 43.2793 21.1295 43.6274 19.0027 43.6274C8.50729 43.6274 0 35.1201 0 24.6247C0 18.3992 2.99168 12.8727 7.62065 9.40779C5.9997 16.4872 3.10049 37.7528 25.0895 42.6292Z" fill="#534884"/>
<path d="M35.1878 24.5404C35.1878 33.4829 27.9397 40.7282 19.0027 40.7282C10.0603 40.7282 2.81219 33.4829 2.81219 24.5404C2.81219 15.6034 10.0603 8.35561 19.0027 8.35561C27.9397 8.35561 35.1878 15.6034 35.1878 24.5404Z" fill="#322C4E"/>
<path d="M32.8651 24.6246C32.8651 30.298 29.4601 35.1772 24.5809 37.323C22.8756 38.0737 20.9881 38.4925 19.0027 38.4925C11.3412 38.4925 5.13208 32.2834 5.13208 24.6246C5.13208 22.2286 5.74131 19.9712 6.8156 18.0021C9.16545 13.6886 13.7427 10.7595 19.0027 10.7595C19.0272 10.7595 19.0517 10.7595 19.0789 10.7622C26.6805 10.8003 32.8325 16.9604 32.8624 24.5621C32.8652 24.5838 32.8651 24.6056 32.8651 24.6246Z" fill="white"/>
<path d="M31.2088 24.5703L19.0788 24.6247V12.4268C25.7666 12.4648 31.1789 17.8798 31.2088 24.5703Z" fill="#5CCAAB"/>
<path d="M14.0771 28.8484C14.0771 31.2282 16.2828 33.1537 19.0026 33.1537C21.7169 33.1537 23.9226 31.2282 23.9226 28.8484C23.9226 24.6709 19.0978 25.0762 16.3672 23.7843C14.9991 23.1343 14.0771 21.7581 14.0771 20.2378C14.0771 17.858 16.2828 15.9297 19.0026 15.9297C21.7169 15.9297 23.9226 17.858 23.9226 20.2378" stroke="#534884" stroke-width="3.37632" stroke-miterlimit="10"/>
<path d="M19.0027 13.5391V35.7158" stroke="#534884" stroke-width="3.37632" stroke-miterlimit="10"/>
<path d="M24.5809 37.323C22.8756 38.0737 20.9881 38.4925 19.0027 38.4925C11.3412 38.4925 5.13208 32.2834 5.13208 24.6246C5.13208 22.2286 5.74131 19.9712 6.8156 18.0021C7.50641 24.8558 10.4111 37.1979 24.5809 37.323Z" fill="#D4D5D4"/>
</svg>
